<?xml version="1.0" encoding="UTF-8"?>
<svg width="108px" height="108px" viewBox="0 0 108 108" version="1.1" xmlns="http://www.w3.org/2000/svg" xmlns:xlink="http://www.w3.org/1999/xlink">
    <!-- Generator: Sketch 50.2 (55047) - http://www.bohemiancoding.com/sketch -->
    <title>ic_launcher_foreground</title>
    <desc>Created with Sketch.</desc>
    <defs></defs>
    <g id="ic_launcher_foreground" stroke="none" stroke-width="1" fill="none" fill-rule="evenodd">
        <path d="M69.0114286,53.04 C71.6628704,53.9085758 73.7657065,55.3599898 75.32,57.3942857 C76.8742935,59.4285816 77.6514286,61.9542706 77.6514286,64.9714286 C77.6514286,69.1314494 76.0514446,72.3428458 72.8514286,74.6057143 C69.6514126,76.8685827 64.9886021,78 58.8628571,78 L35,78 L35,30 L57.4914286,30 C63.1600283,30 67.525699,31.1085603 70.5885714,33.3257143 C73.6514439,35.5428682 75.1828571,38.5942663 75.1828571,42.48 C75.1828571,44.8571547 74.6342912,46.9599909 73.5371429,48.7885714 C72.4399945,50.617152 70.9314382,52.0342807 69.0114286,53.04 Z M43.9142857,36.9942857 L43.9142857,50.2285714 L56.5314286,50.2285714 C59.6400155,50.2285714 62.0285631,49.668577 63.6971429,48.5485714 C65.3657226,47.4285658 66.2,45.7942965 66.2,43.6457143 C66.2,41.4514176 65.3657226,39.7942913 63.6971429,38.6742857 C62.0285631,37.5542801 59.6400155,36.9942857 56.5314286,36.9942857 L43.9142857,36.9942857 Z M58.3142857,71.0057143 C65.2171774,71.0057143 68.6685714,68.6971659 68.6685714,64.08 C68.6685714,59.4628341 65.2171774,57.1542857 58.3142857,57.1542857 L43.9142857,57.1542857 L43.9142857,71.0057143 L58.3142857,71.0057143 Z" id="letter" fill="#356859"></path>
        <circle id="debug" fill="#FD5523" cx="70" cy="70" r="12"></circle>
    </g>
</svg>